<svg xmlns="http://www.w3.org/2000/svg" viewBox="0 0 800 400">
  <defs>
    <linearGradient id="planeGrad" x1="0%" y1="0%" x2="100%" y2="100%">
      <stop offset="0%" style="stop-color:#1abc9c;stop-opacity:1" />
      <stop offset="100%" style="stop-color:#16a085;stop-opacity:1" />
    </linearGradient>
    <linearGradient id="skyGrad" x1="0%" y1="0%" x2="0%" y2="100%">
      <stop offset="0%" style="stop-color:#3498db;stop-opacity:1" />
      <stop offset="100%" style="stop-color:#87CEEB;stop-opacity:1" />
    </linearGradient>
    <radialGradient id="sunGrad" cx="50%" cy="50%" r="50%">
      <stop offset="0%" style="stop-color:#f1c40f;stop-opacity:1" />
      <stop offset="100%" style="stop-color:#f39c12;stop-opacity:1" />
    </radialGradient>
  </defs>
  
  <!-- Sky background -->
  <rect width="800" height="400" fill="url(#skyGrad)"/>
  
  <!-- Sun -->
  <circle cx="700" cy="80" r="40" fill="url(#sunGrad)"/>
  
  <!-- Clouds -->
  <ellipse cx="150" cy="100" rx="60" ry="30" fill="#fff" opacity="0.9"/>
  <ellipse cx="180" cy="90" rx="40" ry="20" fill="#fff" opacity="0.9"/>
  <ellipse cx="120" cy="90" rx="30" ry="15" fill="#fff" opacity="0.9"/>
  
  <ellipse cx="500" cy="150" rx="50" ry="25" fill="#fff" opacity="0.9"/>
  <ellipse cx="530" cy="140" rx="35" ry="18" fill="#fff" opacity="0.9"/>
  
  <!-- Cargo plane -->
  <g transform="translate(300,200)">
    <!-- Plane body -->
    <ellipse cx="0" cy="0" rx="120" ry="20" fill="url(#planeGrad)"/>
    
    <!-- Plane nose -->
    <ellipse cx="120" cy="0" rx="30" ry="15" fill="url(#planeGrad)"/>
    
    <!-- Wings -->
    <ellipse cx="-20" cy="0" rx="80" ry="8" fill="url(#planeGrad)"/>
    <ellipse cx="-60" cy="0" rx="60" ry="6" fill="url(#planeGrad)"/>
    
    <!-- Tail -->
    <polygon points="-120,0 -150,-25 -140,-25 -110,-5" fill="url(#planeGrad)"/>
    <polygon points="-120,0 -150,25 -140,25 -110,5" fill="url(#planeGrad)"/>
    
    <!-- Windows -->
    <circle cx="80" cy="-5" r="8" fill="#87CEEB" opacity="0.8"/>
    <circle cx="60" cy="-5" r="8" fill="#87CEEB" opacity="0.8"/>
    <circle cx="40" cy="-5" r="8" fill="#87CEEB" opacity="0.8"/>
    
    <!-- Cargo door -->
    <rect x="-80" y="-15" width="60" height="30" fill="#16a085" rx="3"/>
    <rect x="-75" y="-10" width="50" height="20" fill="#1abc9c" rx="2"/>
    
    <!-- Engines -->
    <ellipse cx="-40" cy="15" rx="25" ry="8" fill="#34495e"/>
    <ellipse cx="-40" cy="-15" rx="25" ry="8" fill="#34495e"/>
  </g>
  
  <!-- Flight path -->
  <path d="M 100 300 Q 400 150 700 100" stroke="#fff" stroke-width="3" fill="none" stroke-dasharray="10,5" opacity="0.7"/>
  
  <!-- Ground -->
  <rect x="0" y="350" width="800" height="50" fill="#2ecc71"/>
  
  <!-- Airport runway -->
  <rect x="50" y="320" width="200" height="30" fill="#34495e"/>
  
  <!-- Runway lights -->
  <circle cx="70" cy="335" r="3" fill="#f1c40f"/>
  <circle cx="100" cy="335" r="3" fill="#f1c40f"/>
  <circle cx="130" cy="335" r="3" fill="#f1c40f"/>
  <circle cx="160" cy="335" r="3" fill="#f1c40f"/>
  <circle cx="190" cy="335" r="3" fill="#f1c40f"/>
  <circle cx="220" cy="335" r="3" fill="#f1c40f"/>
  
  <!-- Control tower -->
  <rect x="600" y="280" width="30" height="70" fill="#95a5a6"/>
  <rect x="590" y="270" width="50" height="20" fill="#7f8c8d" rx="3"/>
  <rect x="595" y="275" width="40" height="10" fill="#3498db" opacity="0.8"/>
</svg>