<svg xmlns="http://www.w3.org/2000/svg" viewBox="0 0 800 400">
  <defs>
    <linearGradient id="truckGrad" x1="0%" y1="0%" x2="100%" y2="100%">
      <stop offset="0%" style="stop-color:#3498db;stop-opacity:1" />
      <stop offset="100%" style="stop-color:#2980b9;stop-opacity:1" />
    </linearGradient>
    <linearGradient id="roadGrad" x1="0%" y1="0%" x2="0%" y2="100%">
      <stop offset="0%" style="stop-color:#34495e;stop-opacity:1" />
      <stop offset="100%" style="stop-color:#2c3e50;stop-opacity:1" />
    </linearGradient>
  </defs>
  
  <!-- Sky background -->
  <rect width="800" height="300" fill="#87CEEB"/>
  
  <!-- Road -->
  <rect x="0" y="300" width="800" height="100" fill="url(#roadGrad)"/>
  
  <!-- Road lines -->
  <rect x="50" y="345" width="60" height="10" fill="#fff" opacity="0.8"/>
  <rect x="150" y="345" width="60" height="10" fill="#fff" opacity="0.8"/>
  <rect x="250" y="345" width="60" height="10" fill="#fff" opacity="0.8"/>
  <rect x="350" y="345" width="60" height="10" fill="#fff" opacity="0.8"/>
  <rect x="450" y="345" width="60" height="10" fill="#fff" opacity="0.8"/>
  <rect x="550" y="345" width="60" height="10" fill="#fff" opacity="0.8"/>
  <rect x="650" y="345" width="60" height="10" fill="#fff" opacity="0.8"/>
  
  <!-- Truck -->
  <g transform="translate(200,200)">
    <!-- Truck body -->
    <rect x="0" y="40" width="180" height="80" fill="url(#truckGrad)" rx="5"/>
    
    <!-- Truck cabin -->
    <rect x="180" y="20" width="70" height="100" fill="url(#truckGrad)" rx="5"/>
    
    <!-- Windows -->
    <rect x="190" y="30" width="50" height="40" fill="#87CEEB" rx="3"/>
    
    <!-- Wheels -->
    <circle cx="40" cy="135" r="15" fill="#2c3e50"/>
    <circle cx="40" cy="135" r="10" fill="#34495e"/>
    
    <circle cx="140" cy="135" r="15" fill="#2c3e50"/>
    <circle cx="140" cy="135" r="10" fill="#34495e"/>
    
    <circle cx="210" cy="135" r="15" fill="#2c3e50"/>
    <circle cx="210" cy="135" r="10" fill="#34495e"/>
    
    <!-- Headlights -->
    <circle cx="255" cy="60" r="8" fill="#f1c40f"/>
    <circle cx="255" cy="90" r="8" fill="#f39c12"/>
  </g>
  
  <!-- Clouds -->
  <ellipse cx="100" cy="80" rx="40" ry="20" fill="#fff" opacity="0.8"/>
  <ellipse cx="120" cy="70" rx="30" ry="15" fill="#fff" opacity="0.8"/>
  
  <ellipse cx="600" cy="60" rx="50" ry="25" fill="#fff" opacity="0.8"/>
  <ellipse cx="630" cy="50" rx="35" ry="18" fill="#fff" opacity="0.8"/>
</svg>